# xmcd
# 
# Track frame offsets:
#     150
#     14919
#     31109
#     61811
#     76736
#     97911
#     118749
#     136803
#     150861
#     164091
#     191592
#     211395
#     223629
#     243060
# 
# Disc length: 3569
# 
# Revision: 1
# Processed by: cddbd v1.5.2PL0 Copyright (c) Steve Scherf et al.
# Submitted via: fre:ac v1.0.17
# 
DISCID=b00def0e
DTITLE=Hans Theessink - Homecooking - Best of BLUES
DYEAR=2011
DGENRE=Blues
TTITLE0=Homecooking
TTITLE1=Bloodsucker Blues
TTITLE2=Missing You
TTITLE3=Automobile
TTITLE4=Mandolin Man
TTITLE5=Train
TTITLE6=Big Bill`s Guitar
TTITLE7=Demons
TTITLE8=Wings
TTITLE9=Louisiana Man
TTITLE10=Where the Southern crosses the dog
TTITLE11=Love You Baby
TTITLE12=My baby changed the lock on her door
TTITLE13=When Luther played the Blues
EXTD=
EXTT0=
EXTT1=
EXTT2=
EXTT3=
EXTT4=
EXTT5=
EXTT6=
EXTT7=
EXTT8=
EXTT9=
EXTT10=
EXTT11=
EXTT12=
EXTT13=
PLAYORDER=
